<?xml version="1.0" standalone="no"?>
<!DOCTYPE svg PUBLIC "-//W3C//DTD SVG 20010904//EN"
 "http://www.w3.org/TR/2001/REC-SVG-20010904/DTD/svg10.dtd">
<svg version="1.0" xmlns="http://www.w3.org/2000/svg"
 width="1349.000000pt" height="1349.000000pt" viewBox="0 0 1349.000000 1349.000000"
 preserveAspectRatio="xMidYMid meet">
<metadata>
Created by potrace 1.11, written by Peter Selinger 2001-2013
</metadata>
<g transform="translate(0.000000,1349.000000) scale(0.100000,-0.100000)"
fill="#000000" stroke="none">
<path d="M7320 13455 c0 -2 19 -14 43 -28 23 -13 114 -66 202 -117 88 -51 180
-104 205 -118 25 -14 69 -40 98 -59 29 -18 54 -33 56 -33 6 0 270 -161 339
-208 38 -25 74 -53 80 -62 10 -13 297 -134 297 -125 0 2 -178 104 -305 175
-223 124 -498 288 -620 370 -38 26 -108 66 -155 90 -47 24 -105 54 -130 67
-53 29 -110 54 -110 48z"/>
<path d="M6990 13437 c0 -2 30 -24 68 -48 37 -23 110 -71 163 -105 156 -101
479 -283 479 -270 0 14 -514 326 -536 326 -3 0 -21 10 -42 23 -67 42 -132 78
-132 74z"/>
<path d="M7285 13196 c39 -24 88 -55 110 -69 49 -30 438 -267 518 -314 31 -19
62 -31 69 -27 6 4 8 3 4 -4 -7 -12 59 -56 73 -48 5 4 13 1 17 -5 4 -8 3 -9 -4
-5 -7 4 -12 5 -12 2 0 -3 10 -10 21 -17 17 -9 20 -8 14 3 -4 7 2 4 12 -8 24
-28 99 -72 89 -53 -4 8 1 4 10 -8 9 -13 25 -23 36 -23 10 0 31 -12 45 -27 15
-16 23 -22 19 -16 -5 9 -2 11 8 7 9 -3 13 -10 10 -15 -3 -5 4 -9 15 -9 12 0
30 -9 41 -20 11 -11 25 -20 30 -20 6 0 10 -4 10 -10 0 -5 7 -10 15 -10 8 0 15
-5 15 -11 0 -5 5 -7 10 -4 6 3 10 1 10 -5 0 -6 10 -14 23 -19 34 -13 147 -99
148 -113 1 -7 0 -21 -1 -32 -1 -10 13 -34 32 -53 l33 -35 -75 43 c-109 62
-281 142 -570 267 -212 92 -452 200 -482 219 -5 2 -8 2 -8 0 0 -3 36 -27 81
-54 44 -26 99 -60 122 -75 23 -15 65 -41 92 -58 290 -178 524 -351 675 -498 8
-9 -21 8 -125 73 -184 113 -529 327 -580 360 -190 121 -256 164 -421 273 -134
88 -190 120 -198 112 -9 -7 -27 -1 -62 22 -128 81 -208 129 -199 120 17 -18
207 -140 268 -172 32 -17 70 -39 85 -49 15 -10 97 -64 182 -119 206 -134 307
-202 339 -230 25 -22 24 -22 -14 2 -53 32 -385 239 -455 283 -140 87 -268 168
-302 189 -21 14 -38 21 -38 17 1 -10 28 -31 315 -248 277 -210 318 -245 285
-245 -6 0 -47 18 -93 41 -45 22 -77 36 -72 31 13 -12 154 -102 160 -102 2 0
23 -13 47 -29 38 -26 453 -278 631 -385 38 -23 81 -48 95 -57 15 -9 101 -61
192 -116 91 -55 278 -169 415 -253 138 -84 279 -171 315 -192 187 -113 248
-155 241 -166 -4 -7 -65 25 -181 98 -96 60 -184 115 -195 123 -47 33 -75 49
-75 44 0 -3 16 -15 36 -27 19 -12 33 -25 30 -27 -3 -3 -58 30 -123 73 -65 43
-126 78 -135 78 -9 0 -15 4 -12 7 5 8 -35 39 -49 39 -4 0 -5 -5 -1 -12 4 -7 3
-8 -5 -4 -6 4 -9 11 -6 16 3 5 -5 16 -17 24 -33 23 -47 19 -18 -5 l25 -21 -25
15 c-14 8 -24 20 -23 25 2 9 -259 188 -292 201 -5 2 -12 7 -15 10 -14 19 -200
126 -200 116 0 -5 207 -145 215 -145 3 0 37 -22 77 -48 40 -26 102 -67 138
-90 36 -23 61 -42 57 -42 -5 0 -21 8 -35 19 -15 10 -101 62 -192 116 -461 274
-625 376 -530 331 l35 -17 -30 26 c-16 14 -91 56 -165 94 -74 38 -155 81 -180
94 -25 14 -65 36 -90 49 -60 32 -412 233 -464 265 -22 14 -34 19 -26 11 8 -8
83 -57 165 -108 277 -172 592 -377 601 -392 5 -8 -24 0 -41 12 -5 4 -37 22
-70 40 -33 17 -100 57 -150 87 -112 68 -114 69 -199 122 -286 178 -701 426
-661 395 11 -8 61 -44 110 -80 50 -35 131 -94 182 -132 51 -37 180 -123 287
-192 107 -69 193 -126 191 -128 -2 -2 -23 9 -47 25 -24 16 -101 65 -173 107
-71 43 -168 103 -215 132 -84 54 -150 91 -140 81 3 -3 35 -27 71 -54 36 -26
102 -80 145 -120 134 -121 145 -131 269 -217 116 -81 376 -247 462 -296 23
-13 40 -27 37 -32 -3 -4 0 -8 6 -8 6 0 54 -25 106 -55 53 -30 100 -55 105 -55
5 0 9 -4 9 -9 0 -5 9 -13 20 -16 11 -3 26 -12 32 -18 7 -7 56 -44 108 -83 266
-199 242 -209 -115 -51 -229 101 -301 128 -320 121 -14 -6 -14 -9 2 -27 17
-19 17 -20 -2 -8 -11 6 -75 47 -142 90 -68 44 -123 78 -123 77 0 -2 33 -31 73
-64 39 -33 115 -102 167 -153 52 -51 147 -133 210 -184 117 -93 150 -117 278
-205 39 -28 72 -53 72 -55 0 -4 -85 43 -170 95 -222 136 -461 284 -590 367
-166 106 -196 124 -170 101 9 -7 80 -62 159 -121 78 -60 140 -111 137 -114 -8
-8 -226 103 -300 153 -254 169 -434 294 -423 294 6 0 -24 20 -68 43 -241 130
-337 178 -348 174 -6 -2 30 -35 79 -73 143 -111 153 -118 124 -101 -14 8 -81
50 -150 94 -276 176 -495 301 -507 289 -15 -14 94 -91 296 -208 118 -68 118
-69 282 -166 140 -84 190 -124 175 -139 -9 -9 -98 26 -132 52 -18 14 -35 25
-38 25 -2 0 -149 96 -325 213 -731 484 -865 568 -996 624 -126 54 -54 -8 415
-360 433 -325 574 -436 566 -444 -7 -7 -53 16 -144 70 -34 20 -64 37 -66 37
-4 0 -214 127 -387 235 -62 39 -119 74 -126 78 -7 4 -13 6 -13 4 0 -14 432
-290 620 -397 41 -23 127 -74 190 -112 63 -38 124 -75 135 -81 57 -34 425
-279 425 -283 0 -3 -3 -3 -7 -1 -113 64 -446 262 -673 399 -162 99 -302 184
-310 189 -8 5 -58 35 -110 67 -387 239 -729 442 -746 442 -25 0 114 -108 331
-258 186 -128 673 -468 803 -562 120 -86 187 -143 157 -134 -17 5 157 -117
182 -127 9 -4 20 -12 512 -337 515 -340 1057 -719 1046 -731 -8 -7 -571 341
-858 531 -49 32 -90 58 -92 58 -5 0 -785 523 -899 603 -60 42 -106 77 -102 77
3 0 49 -27 101 -60 52 -32 95 -57 95 -55 0 7 -185 143 -295 218 -55 37 -106
65 -113 62 -7 -3 -10 0 -7 5 3 5 -27 31 -67 56 -40 25 -91 59 -113 73 -51 35
-65 43 -65 38 0 -3 52 -39 115 -81 63 -43 115 -79 115 -81 0 -2 -26 11 -57 29
-32 17 -113 60 -180 94 -67 33 -151 79 -187 102 -37 22 -68 40 -71 40 -6 0
-188 117 -297 192 -49 32 -88 57 -88 54 0 -2 48 -39 108 -81 59 -42 114 -81
122 -88 8 -7 85 -57 170 -111 172 -111 188 -122 147 -107 -36 14 -46 8 -40
-23 5 -24 3 -25 -23 -17 -16 5 -54 21 -84 36 -75 37 -55 21 75 -60 163 -102
515 -334 515 -339 0 -2 -18 5 -41 15 -22 11 -45 19 -51 17 -15 -5 92 -88 280
-218 468 -323 686 -479 678 -487 -5 -5 -240 146 -665 429 -206 137 -376 246
-378 244 -4 -4 22 -30 86 -85 84 -71 -509 320 -906 598 -122 86 -232 163 -244
171 -12 8 -35 26 -50 38 -16 13 -29 21 -29 18 0 -2 26 -26 58 -52 31 -25 61
-53 66 -62 11 -19 -133 57 -341 181 -196 117 -185 111 -394 234 -152 89 -266
164 -303 198 -6 5 -32 25 -56 43 l-45 33 40 -36 c22 -20 39 -41 37 -46 -1 -5
44 -39 100 -76 339 -219 592 -385 603 -396 19 -20 -158 86 -260 155 -16 12
-23 14 -15 5 18 -18 140 -102 585 -399 584 -391 761 -512 1043 -711 168 -119
214 -155 161 -127 -28 16 -33 7 -9 -15 38 -35 20 -37 -37 -5 -91 51 -453 288
-453 297 0 2 4 1 10 -2 5 -3 7 0 5 7 -7 16 29 -9 -501 347 -463 311 -630 426
-679 470 -16 14 -23 18 -15 7 12 -15 5 -14 -40 9 -62 31 -257 162 -309 207
-18 16 -45 35 -60 41 -14 6 -42 21 -61 32 -78 48 -152 85 -148 75 3 -9 159
-123 364 -265 80 -55 238 -166 359 -251 28 -19 86 -60 130 -91 287 -201 514
-373 493 -373 -4 0 -13 6 -20 13 -7 6 -42 32 -78 56 -140 95 -480 321 -580
386 -58 37 -135 87 -171 111 -37 24 -70 44 -74 44 -4 0 96 -69 222 -153 212
-143 345 -234 468 -321 506 -357 533 -376 564 -405 l26 -23 -27 16 c-48 29
-64 18 -22 -14 22 -17 47 -37 57 -46 10 -8 76 -57 147 -110 75 -55 127 -100
124 -106 -4 -7 -2 -8 4 -4 7 4 12 2 12 -4 0 -6 5 -8 10 -5 6 3 10 2 10 -3 0
-6 57 -42 128 -81 112 -63 433 -284 553 -381 71 -57 173 -154 156 -147 -9 3
-47 29 -86 57 -39 28 -80 53 -92 55 -12 3 -54 24 -93 47 -39 23 -80 48 -91 54
-11 6 -121 73 -245 149 -241 148 -376 225 -393 225 -6 0 0 -12 14 -26 l24 -27
-30 19 c-41 26 -448 299 -630 424 -243 166 -612 410 -620 410 -4 0 29 -27 73
-60 148 -112 126 -111 -60 2 -383 233 -398 241 -398 229 0 -21 144 -126 445
-326 176 -117 343 -229 370 -249 28 -20 58 -41 68 -48 23 -16 118 -84 132 -95
36 -28 419 -311 455 -336 36 -25 -45 47 -254 228 -87 75 -163 147 -131 124 11
-8 25 -18 32 -24 6 -5 40 -31 75 -56 225 -166 819 -605 847 -627 51 -41 65
-48 50 -25 -6 10 -85 79 -174 153 -89 74 -161 137 -159 139 1 1 42 -26 89 -60
265 -194 383 -279 495 -356 136 -94 154 -108 128 -98 -10 4 -18 3 -18 -1 1 -9
46 -47 308 -255 84 -66 151 -123 148 -126 -11 -11 -216 125 -961 636 -429 294
-814 559 -855 588 -301 209 -546 363 -579 363 -32 0 41 -65 405 -362 126 -102
253 -208 282 -235 57 -54 68 -79 27 -63 -52 20 -38 10 137 -95 201 -120 529
-357 515 -371 -2 -2 -18 0 -35 5 -34 10 -40 4 -19 -19 8 -10 5 -9 -8 1 -81 64
-1124 759 -1175 783 -8 4 -7 1 4 -6 41 -28 162 -122 177 -137 43 -43 125 -118
149 -136 341 -256 431 -322 513 -379 53 -37 97 -69 97 -71 0 -3 -55 30 -122
73 -151 96 -425 273 -494 318 -28 19 -59 34 -70 34 -19 0 -10 -10 72 -79 58
-50 521 -398 820 -617 352 -259 718 -543 710 -551 -6 -6 -8 -5 -185 122 -84
61 -163 117 -176 125 -26 16 -448 312 -720 504 -201 142 -367 264 -485 357
-87 68 -112 82 -120 65 -4 -8 116 -106 191 -156 12 -8 39 -31 58 -51 20 -20
117 -101 216 -179 206 -163 249 -200 237 -200 -4 0 -38 20 -75 45 -37 25 -67
43 -67 41 0 -3 39 -33 88 -67 428 -308 744 -539 767 -562 16 -16 -14 2 -85 51
-36 25 -58 38 -50 30 16 -16 324 -247 450 -338 41 -29 80 -58 85 -63 12 -12
-63 31 -85 48 -25 19 -280 170 -346 204 -67 34 -114 47 -114 31 0 -5 10 -30
22 -55 12 -24 19 -48 15 -51 -19 -19 -243 109 -599 343 -87 57 -159 103 -160
103 -2 0 42 -46 97 -103 155 -160 290 -317 271 -317 -5 0 -158 108 -226 160
-56 42 -110 73 -110 61 0 -12 150 -129 426 -331 108 -80 216 -159 238 -175 23
-17 100 -73 171 -125 72 -52 135 -98 140 -102 6 -5 80 -60 165 -124 85 -64
169 -130 185 -146 l30 -31 -60 33 c-76 42 -527 349 -660 449 -55 41 -125 98
-155 127 -30 28 -84 71 -120 95 -36 24 -159 109 -275 189 -518 361 -722 496
-734 485 -5 -6 22 -31 120 -115 91 -76 185 -171 164 -163 -47 16 -359 221
-470 308 -74 59 -223 151 -231 143 -9 -10 131 -127 570 -481 101 -81 228 -199
222 -205 -3 -2 -51 29 -108 70 -111 80 -128 92 -128 85 0 -3 42 -36 92 -73 51
-38 102 -76 113 -86 11 -9 94 -74 185 -144 167 -129 490 -387 545 -435 17 -14
80 -69 140 -120 61 -52 130 -113 155 -135 157 -145 190 -175 230 -213 39 -38
40 -40 10 -19 -54 38 -223 161 -240 175 -60 49 -435 323 -620 452 -292 204
-324 226 -317 214 3 -5 25 -23 49 -39 24 -16 45 -32 48 -35 3 -3 158 -115 345
-249 187 -133 358 -256 380 -272 243 -174 667 -491 683 -511 7 -8 -54 29 -135
83 -423 280 -999 664 -1083 722 -52 37 -188 131 -302 210 -185 128 -209 147
-219 180 -11 34 -34 52 -258 202 -338 227 -366 231 -106 18 137 -112 180 -150
155 -137 -18 10 -142 97 -260 184 -107 78 -230 163 -250 174 -33 18 123 -121
265 -235 180 -145 162 -130 460 -363 410 -321 545 -436 545 -466 0 -9 6 -19
14 -22 29 -11 389 -266 559 -396 286 -218 285 -219 -25 -14 -119 78 -220 143
-225 143 -4 -1 12 -20 37 -43 25 -23 39 -37 30 -31 -8 6 -123 87 -255 179
-132 93 -361 254 -510 358 -388 273 -397 278 -175 99 69 -55 182 -147 251
-204 70 -56 142 -115 161 -130 19 -15 79 -65 134 -110 55 -46 116 -95 135
-111 144 -117 468 -394 469 -400 0 -5 -93 63 -207 149 -191 145 -290 222 -504
391 -20 15 -51 39 -69 53 -26 20 -334 265 -409 326 -38 30 -150 120 -351 282
-118 95 -224 180 -235 190 -11 10 -35 28 -52 41 -27 18 -33 19 -33 7 0 -41
197 -224 465 -431 140 -108 179 -136 140 -102 -44 40 -73 64 -137 115 -38 30
-68 56 -68 59 0 13 558 -411 930 -706 80 -64 152 -121 160 -128 147 -116 354
-303 372 -337 13 -24 21 -29 -220 143 -112 80 -223 159 -245 175 -23 16 -103
72 -177 124 -233 165 -530 363 -663 443 -96 58 -156 86 -242 114 -77 24 -153
59 -237 106 -107 62 -555 354 -778 509 l-75 52 45 -43 c25 -23 79 -74 122
-112 84 -78 117 -122 96 -130 -22 -7 -63 8 -233 88 -297 140 -364 169 -417
179 -37 7 -52 -1 -40 -20 6 -9 303 -219 679 -481 154 -107 292 -213 329 -253
52 -56 377 -300 864 -647 138 -99 238 -183 217 -183 -15 0 -415 282 -507 357
-17 14 -330 247 -615 459 -369 274 -876 630 -860 604 3 -5 32 -26 63 -47 31
-21 84 -57 117 -81 33 -23 69 -49 80 -56 42 -29 439 -329 645 -487 227 -174
288 -219 438 -325 50 -36 92 -68 92 -70 0 -7 -3 -5 -143 88 -65 43 -120 78
-121 78 -2 0 -60 37 -130 83 -69 45 -182 118 -251 162 -69 44 -167 109 -218
144 -51 35 -128 89 -172 120 -44 30 -87 61 -95 68 -316 257 -503 398 -571 433
-74 37 -187 109 -384 246 -88 61 -203 141 -255 177 -52 36 -99 70 -105 74 -18
16 -482 335 -547 378 -50 31 -29 9 25 -28 180 -123 579 -423 695 -522 34 -30
26 -37 -15 -14 -83 46 2 -13 432 -298 402 -267 588 -403 650 -473 l20 -23 -45
24 c-24 13 -261 168 -525 344 -462 308 -585 385 -585 369 0 -5 15 -23 32 -42
18 -19 -61 39 -177 128 -115 90 -217 168 -225 174 -7 6 18 -22 58 -62 39 -40
87 -97 107 -125 60 -91 183 -210 455 -441 74 -62 420 -333 560 -438 162 -121
143 -116 -30 7 -58 41 -116 83 -130 92 -69 48 -364 263 -424 310 -46 36 -72
51 -79 44 -21 -21 96 -143 433 -451 51 -47 109 -100 129 -119 20 -18 83 -77
140 -130 116 -107 185 -185 179 -202 -4 -13 -136 54 -244 123 -38 25 -140 97
-225 160 -253 188 -269 199 -269 194 0 -3 64 -55 143 -116 262 -205 357 -281
357 -286 0 -12 -133 79 -335 227 -225 165 -351 252 -320 222 6 -5 75 -61 155
-124 80 -62 150 -118 156 -124 6 -5 30 -26 54 -45 47 -37 185 -156 209 -178 7
-7 11 -15 9 -17 -7 -7 -82 48 -358 259 -227 174 -336 246 -375 246 -46 0 55
-99 365 -355 86 -71 175 -145 199 -164 23 -19 142 -115 264 -214 122 -98 233
-188 247 -200 14 -12 59 -49 100 -81 41 -33 77 -63 80 -66 3 -3 43 -37 90 -75
118 -96 126 -104 189 -159 63 -56 82 -84 30 -45 -66 50 -517 367 -719 506
-535 367 -912 608 -1240 791 -74 41 -176 106 -227 144 -83 61 -133 83 -133 60
0 -32 102 -138 350 -366 40 -37 343 -301 490 -426 481 -412 748 -649 728 -650
-4 0 -13 6 -20 13 -24 23 -542 357 -554 357 -3 0 -28 15 -57 33 -76 49 -250
136 -315 158 -34 12 -93 22 -147 24 -119 5 -199 31 -373 121 -138 72 -180 89
-104 43 36 -23 349 -245 447 -319 28 -20 149 -111 270 -200 304 -226 443 -335
405 -315 -20 10 82 -89 150 -145 30 -25 70 -60 90 -78 33 -32 33 -32 5 -15
-52 31 -518 364 -544 389 -14 13 -84 64 -156 113 -260 179 -545 371 -550 371
-3 0 -26 15 -52 34 -73 51 -225 136 -245 136 -28 0 -24 -56 5 -72 13 -7 101
-69 196 -138 95 -69 182 -132 195 -140 12 -8 44 -31 72 -51 64 -47 652 -470
680 -489 12 -8 86 -62 165 -119 185 -133 212 -158 73 -67 -32 22 -84 55 -114
74 -30 20 -80 52 -110 72 -30 21 -118 74 -195 120 -268 159 -355 184 -267 75
21 -26 248 -269 293 -314 26 -25 42 -61 28 -61 -36 0 -245 126 -589 356 -197
132 -227 147 -110 54 68 -54 234 -194 245 -206 6 -6 62 -55 125 -109 189 -161
186 -162 -25 -10 -524 378 -587 420 -700 465 -61 24 -131 45 -157 48 -44 4
-48 3 -48 -17 0 -12 11 -39 25 -61 14 -22 25 -42 25 -45 0 -3 -32 18 -71 47
-39 29 -92 69 -119 88 -26 19 -131 96 -231 171 -194 143 -209 153 -209 145 0
-16 396 -315 1130 -855 900 -662 981 -721 1235 -912 255 -192 302 -232 170
-142 -80 54 -323 222 -395 273 -351 248 -865 598 -871 594 -12 -7 -168 56
-310 126 -130 63 -241 110 -264 110 -54 0 41 -103 264 -285 134 -110 -84 39
-309 211 -73 55 -123 84 -216 122 -148 62 -174 69 -174 50 0 -32 187 -185 505
-413 164 -117 187 -136 137 -110 -84 42 -26 -20 188 -201 58 -50 344 -282 565
-459 46 -37 -6 -6 -80 48 -89 64 -371 265 -480 341 -38 27 -85 60 -103 74 -17
13 -32 22 -32 19 0 -4 53 -45 118 -91 141 -103 493 -362 507 -374 6 -5 46 -35
90 -67 390 -286 778 -586 885 -685 33 -30 7 -16 -95 52 -193 128 -331 228
-327 240 1 5 -2 7 -7 4 -5 -4 -15 0 -23 7 -24 24 -68 50 -75 43 -3 -3 7 -16
22 -28 26 -21 352 -269 468 -356 73 -56 57 -66 -25 -15 -20 12 -160 113 -310
224 -150 111 -279 204 -286 206 -27 11 -23 -7 9 -37 29 -27 301 -233 479 -364
30 -22 74 -54 97 -70 23 -17 52 -39 65 -48 221 -160 328 -245 328 -258 0 -23
-406 225 -860 525 -280 185 -298 194 -85 44 200 -142 668 -493 690 -519 12
-14 14 -20 5 -15 -38 21 -284 192 -463 322 -184 135 -310 209 -331 195 -12 -7
59 -72 298 -271 186 -155 237 -201 223 -201 -41 0 -837 529 -815 541 27 15 76
16 113 4 53 -19 38 -6 -130 106 -77 52 -144 98 -150 102 -5 4 -215 144 -465
310 -391 259 -650 437 -948 650 -37 26 -94 66 -127 89 -33 23 -62 44 -65 48
-3 3 -30 23 -60 44 -84 58 -12 -2 155 -128 83 -63 213 -162 290 -221 77 -59
174 -133 215 -164 41 -31 77 -58 80 -62 3 -3 43 -34 90 -69 47 -36 92 -70 100
-77 8 -7 96 -76 195 -154 239 -188 341 -277 330 -287 -9 -9 -273 160 -429 275
-100 74 -80 32 24 -48 14 -11 0 -6 -30 11 -30 17 -89 48 -130 69 -41 20 -122
69 -181 108 -195 131 -325 207 -340 197 -5 -3 -1 -21 9 -40 13 -28 63 -68 242
-192 124 -85 295 -205 380 -266 85 -61 164 -118 177 -126 12 -8 59 -42 105
-75 108 -77 476 -325 483 -325 3 0 28 -16 56 -36 28 -20 48 -31 45 -25 -10 15
6 14 29 -3 11 -7 47 -30 80 -50 74 -46 51 -26 -85 70 -97 69 -147 124 -134
146 6 9 36 -13 314 -224 209 -158 240 -183 240 -192 0 -6 -163 91 -213 126
-15 11 -27 17 -27 15 0 -3 109 -83 243 -177 133 -95 265 -189 292 -210 28 -20
192 -137 365 -260 303 -214 404 -290 292 -219 -29 19 -177 115 -330 213 -370
240 -416 269 -562 362 -69 43 -153 97 -187 119 -35 22 -91 58 -125 79 -35 21
-99 62 -143 90 -45 28 -90 56 -100 63 -53 33 -318 201 -380 241 -38 25 -92 60
-120 77 -100 65 -294 191 -455 297 -165 108 -165 108 -96 46 38 -35 138 -130
221 -213 130 -130 227 -221 325 -306 142 -123 557 -442 890 -684 113 -82 237
-172 275 -200 39 -28 96 -68 128 -90 61 -41 87 -66 46 -44 -24 12 -168 106
-589 385 -118 78 -263 182 -322 231 -59 49 -129 104 -155 122 -44 30 -42 28
17 -26 35 -32 105 -99 155 -149 73 -74 213 -199 284 -256 86 -69 469 -348 594
-432 64 -44 76 -59 20 -25 -62 37 -430 284 -538 361 -243 173 -285 198 -272
163 4 -8 -49 25 -116 73 -231 166 -375 255 -578 358 -147 75 -176 72 -96 -9
87 -89 336 -291 857 -697 267 -208 520 -408 530 -420 3 -3 21 -18 40 -34 88
-71 180 -159 180 -171 0 -8 -8 -12 -20 -10 -20 4 -177 72 -195 85 -5 4 -68 37
-140 75 -71 37 -136 73 -144 79 -11 8 -13 8 -8 -1 4 -6 36 -28 72 -48 36 -20
65 -38 65 -40 0 -2 -33 10 -73 26 -86 36 -201 69 -239 69 -38 0 -68 -32 -62
-66 6 -34 39 -98 109 -214 125 -204 123 -248 -10 -237 -85 7 -323 79 -470 142
-16 7 -104 43 -195 79 -251 100 -272 88 -77 -40 67 -44 221 -139 342 -211 121
-71 286 -169 367 -217 82 -48 148 -90 148 -92 0 -2 -36 15 -80 38 -105 56
-213 112 -445 233 -104 54 -229 120 -278 146 -48 26 -85 43 -81 38 3 -5 22
-18 42 -29 20 -11 54 -30 74 -42 99 -61 674 -402 781 -464 225 -129 334 -196
372 -229 l40 -34 -37 10 c-54 14 -161 58 -618 254 -500 214 -694 293 -833 339
-114 38 -132 42 -142 26 -6 -9 87 -82 159 -125 226 -134 341 -194 639 -332
192 -90 354 -163 359 -163 6 0 8 -6 5 -14 -3 -8 8 -32 24 -55 17 -22 28 -45
24 -50 -8 -13 -81 10 -204 64 -56 25 -105 45 -109 44 -4 0 63 -36 148 -79 197
-100 192 -107 -10 -13 -41 19 -102 48 -135 63 -33 15 -96 44 -140 65 -77 36
-168 78 -210 96 -40 19 11 -13 235 -142 124 -71 236 -136 250 -144 14 -8 111
-63 217 -122 105 -60 190 -109 188 -111 -1 -2 -32 9 -69 23 -36 14 -96 37
-133 51 -38 14 -81 32 -98 39 -16 7 -104 45 -195 83 -91 38 -385 168 -655 287
-726 322 -981 426 -1135 463 -122 29 -150 25 -87 -13 92 -55 123 -73 257 -145
329 -177 947 -481 1291 -636 57 -25 124 -55 149 -66 143 -65 277 -119 356
-142 85 -26 206 -68 249 -86 11 -5 83 -33 160 -63 374 -145 670 -282 703 -325
6 -9 12 -12 12 -6 0 5 3 5 8 -1 8 -11 97 -55 112 -55 8 0 500 -208 615 -259
22 -10 274 -118 560 -240 286 -122 535 -229 553 -237 17 -8 47 -20 65 -28 17
-8 178 -76 357 -151 179 -76 339 -143 355 -150 17 -8 287 -120 600 -250 314
-130 667 -277 785 -327 118 -50 238 -99 265 -110 28 -11 64 -26 80 -33 67 -30
133 -58 195 -81 36 -14 79 -31 96 -39 28 -12 33 -11 60 11 19 16 22 22 10 17
-13 -4 -17 -3 -12 5 5 8 2 10 -8 6 -9 -3 -14 -10 -11 -14 3 -5 0 -12 -6 -16
-8 -4 -9 -3 -5 4 4 7 2 12 -5 12 -7 0 -4 7 7 15 18 14 17 14 -11 5 -29 -10
-29 -9 -10 6 l20 17 -20 -7 c-32 -12 -37 -12 -42 2 -3 6 0 12 7 12 6 0 8 -5 4
-12 -5 -7 -3 -8 5 -3 27 16 -22 34 -99 36 -21 1 -22 2 -6 11 9 5 25 7 34 3 57
-22 -46 34 -335 182 -72 37 -131 68 -130 70 9 8 171 -59 316 -131 96 -48 176
-85 178 -82 2 2 -60 36 -139 76 -79 40 -147 77 -153 82 -5 6 99 -44 232 -111
133 -67 244 -121 247 -121 15 0 189 -84 369 -179 75 -39 137 -70 137 -67 0 4
-24 18 -170 98 -136 75 -267 152 -360 213 -117 76 -148 101 -80 63 25 -14 101
-56 170 -93 69 -37 144 -78 167 -91 24 -13 50 -21 58 -18 10 4 14 2 10 -7 -3
-9 25 -30 85 -61 91 -49 127 -51 66 -4 -19 14 -37 22 -41 17 -3 -6 -27 1 -55
15 -29 14 -48 30 -44 36 4 5 9 6 13 2 8 -12 73 -46 77 -41 5 5 -79 52 -88 49
-5 -1 -8 3 -8 9 0 5 -4 8 -9 5 -5 -3 -12 1 -15 10 -5 13 -9 14 -20 5 -11 -10
-25 -6 -65 15 -56 29 -67 39 -51 49 5 3 10 1 10 -5 0 -6 5 -8 10 -5 6 3 10 1
10 -6 0 -7 3 -9 7 -6 3 4 11 0 17 -7 6 -8 22 -17 36 -20 23 -6 24 -6 5 5 -11
7 -22 12 -23 10 -2 -1 -9 4 -15 12 -20 23 -85 58 -91 48 -3 -5 1 -12 10 -15 9
-4 14 -9 11 -12 -3 -3 -15 0 -27 6 -17 9 -19 14 -9 26 10 13 6 18 -13 15 -5 0
-8 3 -8 7 0 13 -58 43 -64 33 -5 -8 20 -25 34 -24 3 0 14 -8 24 -18 15 -15 16
-19 5 -19 -8 0 -19 4 -24 9 -8 8 -102 63 -291 171 -17 10 -64 38 -105 62 -236
141 -578 346 -608 364 -20 11 -85 51 -145 87 -59 37 -110 67 -113 67 -2 0 -31
18 -63 40 -32 22 -63 40 -68 40 -5 0 -16 7 -23 16 -8 10 1 8 27 -7 94 -55 360
-211 374 -220 67 -41 302 -179 306 -179 3 0 17 -8 32 -19 89 -60 253 -151 263
-145 8 4 9 3 5 -4 -8 -14 50 -46 66 -36 7 4 8 3 4 -4 -8 -13 28 -35 39 -24 5
4 5 2 2 -4 -4 -7 2 -14 13 -17 33 -8 33 11 0 28 -16 8 -30 19 -30 24 0 4 -11
14 -25 21 -14 7 -23 15 -21 17 4 4 75 -39 148 -89 15 -10 30 -18 33 -18 4 0
30 -15 58 -34 111 -72 168 -106 177 -106 6 0 10 -3 10 -8 0 -4 9 -12 19 -17
24 -12 77 -44 244 -147 112 -70 126 -81 117 -98 -7 -13 -7 -21 0 -25 6 -4 10
-3 9 2 -4 21 2 33 16 33 8 0 15 -5 15 -11 0 -8 4 -8 15 1 15 13 39 5 30 -11
-3 -5 2 -6 11 -2 12 4 15 3 10 -6 -4 -6 -4 -11 1 -10 20 3 34 -2 28 -11 -3 -6
1 -7 10 -4 10 4 15 2 13 -7 -2 -9 4 -13 16 -11 12 2 16 -1 10 -9 -4 -7 -3 -10
3 -6 6 4 13 0 17 -8 3 -9 12 -12 22 -8 12 4 15 3 10 -6 -4 -6 -4 -11 1 -10 4
1 15 1 23 0 13 -1 13 -2 0 -11 -13 -9 -13 -10 0 -11 8 -1 21 -1 29 0 7 2 10
-2 6 -8 -4 -7 0 -8 11 -4 11 4 15 2 11 -4 -4 -6 1 -17 10 -24 14 -12 16 -12 9
0 -6 9 -5 12 5 9 8 -3 13 -11 11 -17 -1 -6 1 -10 5 -9 18 5 53 -14 47 -25 -4
-7 -4 -9 1 -5 4 4 16 -3 27 -15 11 -12 16 -16 12 -8 -4 9 -2 12 7 9 8 -3 13
-10 12 -16 -2 -6 4 -9 12 -6 10 4 13 0 10 -14 -2 -14 2 -19 18 -19 48 -1 50
-2 37 -18 -7 -8 -10 -15 -7 -15 2 0 10 6 16 14 9 11 6 17 -15 31 -15 9 -23 12
-19 5 5 -8 3 -11 -6 -8 -8 3 -14 10 -14 16 0 6 -144 107 -320 224 -515 344
-819 550 -835 565 -17 17 43 -19 145 -87 148 -98 125 -75 -40 41 -67 47 -161
126 -215 180 -98 98 -175 162 -317 264 -47 33 -80 63 -76 69 3 6 3 8 -2 4 -11
-10 -47 11 -40 23 4 5 3 9 -2 8 -22 -4 -34 2 -27 14 4 6 4 9 -1 5 -11 -11 -47
11 -39 24 4 7 2 8 -5 4 -7 -5 -20 1 -32 15 -10 12 -19 18 -19 13 0 -5 -6 -2
-13 6 -7 9 -145 104 -307 211 -162 108 -369 245 -459 305 -90 60 -171 114
-180 119 -47 29 -567 379 -571 385 -3 4 -63 51 -135 105 -207 157 -196 155 48
-7 66 -43 120 -78 122 -78 2 0 16 -11 30 -24 26 -24 300 -217 318 -225 5 -2 6
2 2 9 -6 9 -3 9 14 1 24 -13 28 -23 6 -15 -27 11 -16 -3 27 -32 61 -42 78 -49
43 -20 -16 14 -33 26 -37 26 -5 0 -8 5 -8 10 0 6 89 -49 198 -122 225 -151
280 -191 407 -292 49 -40 135 -104 190 -141 55 -38 136 -93 180 -123 44 -30
76 -50 70 -44 -10 10 -188 148 -241 187 -145 105 -647 498 -728 569 -61 54 3
22 143 -71 263 -175 564 -395 630 -460 42 -43 292 -216 434 -302 20 -12 37
-25 37 -27 0 -4 -86 40 -130 66 -106 63 -203 110 -120 58 57 -36 330 -215 565
-370 121 -81 228 -156 238 -168 23 -28 921 -623 972 -644 45 -19 45 -19 44 -3
0 6 -27 35 -61 62 -33 28 -65 55 -72 60 -6 6 -36 30 -66 55 -84 69 -145 128
-138 135 3 4 16 1 28 -5 12 -6 24 -10 26 -7 3 2 -68 56 -158 118 -149 104
-288 198 -773 525 -93 63 -217 148 -275 188 -58 40 -143 99 -190 131 -93 64
-203 148 -235 178 -11 11 -30 26 -42 34 -13 9 -23 20 -23 25 0 9 79 -29 130
-63 14 -9 113 -72 220 -140 172 -108 463 -297 870 -564 389 -255 541 -353 631
-406 150 -88 -3 38 -318 262 -87 62 -176 126 -198 141 -22 16 -96 69 -165 117
-871 609 -1205 851 -1175 851 13 0 171 -97 275 -168 83 -57 992 -693 1138
-796 62 -43 81 -41 31 4 -51 46 -562 422 -720 530 -71 49 -376 274 -389 287
-8 9 28 -7 80 -35 113 -60 296 -189 447 -312 162 -135 235 -187 383 -279 74
-46 146 -90 159 -98 13 -9 22 -10 20 -4 -3 9 -234 177 -499 362 -153 108 -430
310 -435 319 -3 5 41 -23 99 -63 173 -118 278 -190 526 -357 129 -88 266 -181
304 -207 39 -26 84 -57 100 -67 54 -34 -54 73 -249 247 -223 198 -234 208
-320 282 -39 33 -72 62 -75 65 -3 3 -41 37 -84 75 -44 39 -92 81 -106 95 -15
14 -46 44 -71 66 -53 50 -130 132 -109 117 8 -5 87 -62 175 -125 88 -63 189
-134 225 -159 36 -24 67 -47 70 -50 5 -7 408 -277 480 -323 42 -27 40 -24 -29
46 -82 84 -95 102 -87 124 5 12 14 14 38 9 98 -21 463 -197 878 -424 101 -56
187 -101 189 -101 5 0 -246 187 -649 485 -90 66 -170 126 -179 133 -55 45 134
-81 384 -258 179 -126 205 -143 212 -137 2 3 -44 39 -104 81 -153 107 -153
108 -148 117 3 4 0 11 -6 15 -8 4 -9 3 -5 -4 4 -7 4 -12 1 -12 -5 0 -178 116
-341 230 -12 8 -57 39 -100 69 -119 82 -328 232 -339 243 -37 38 320 -201 583
-389 95 -69 176 -122 179 -119 4 3 2 6 -3 6 -6 0 -19 8 -30 18 -10 9 -39 33
-64 52 -25 19 -47 37 -50 40 -3 3 -79 66 -170 140 -320 260 -611 518 -668 594
-49 64 -17 61 123 -12 145 -76 332 -192 422 -261 154 -119 209 -158 231 -165
12 -4 22 -6 22 -3 0 9 -202 166 -565 437 -478 356 -694 520 -702 533 -15 24
149 -79 269 -170 100 -77 188 -117 234 -109 33 6 32 5 47 57 12 41 16 44 47
45 45 1 95 -17 204 -72 87 -44 270 -147 331 -185 144 -91 368 -229 360 -221
-5 6 -100 78 -210 161 -230 173 -261 198 -254 205 3 3 29 -3 57 -14 125 -48
90 -6 -138 164 -74 56 -137 103 -140 107 -3 3 -92 67 -197 143 -106 76 -193
140 -193 142 0 2 46 -26 103 -62 56 -37 125 -81 152 -99 55 -35 151 -98 540
-352 143 -93 298 -194 345 -225 96 -62 380 -237 425 -262 17 -9 37 -21 45 -26
39 -25 152 -90 215 -124 l70 -37 -40 36 c-32 30 -554 426 -671 510 -97 70
-533 401 -549 417 -19 20 -2 8 122 -80 28 -20 59 -43 70 -50 10 -7 79 -56 153
-109 74 -53 196 -139 270 -191 74 -53 151 -107 170 -121 88 -63 -10 18 -140
116 -212 160 -453 342 -470 356 -9 7 -41 31 -73 55 -31 23 -57 44 -57 47 0 4
211 -139 340 -230 30 -21 98 -68 150 -104 52 -35 115 -79 140 -96 25 -17 90
-62 145 -100 55 -38 130 -91 168 -117 65 -47 94 -57 40 -14 -27 20 -52 42
-192 165 -35 31 -69 55 -77 53 -12 -2 -168 100 -414 271 -52 36 -135 94 -185
128 -94 66 -165 126 -165 141 0 14 144 -65 340 -187 172 -108 895 -587 974
-647 l41 -30 -41 38 c-45 42 -124 112 -249 220 -44 38 -85 73 -91 79 -6 5 -39
35 -74 65 -35 30 -68 60 -74 65 -6 6 -45 39 -86 74 -156 134 -116 109 152 -96
103 -79 190 -143 194 -143 3 0 13 -8 22 -18 10 -10 13 -11 7 -3 -6 10 0 8 16
-4 15 -11 24 -24 21 -29 -3 -5 0 -6 6 -2 6 3 89 -48 184 -115 284 -200 389
-271 393 -267 6 6 -199 168 -330 260 -170 119 -527 378 -545 395 -8 8 39 -19
105 -59 128 -79 259 -148 281 -148 27 0 14 31 -33 82 -56 61 -73 72 252 -165
391 -286 375 -276 403 -258 22 13 5 51 -68 151 -118 161 -161 228 -163 254 -2
19 -39 48 -189 149 -462 310 -1354 959 -1343 977 3 4 -5 15 -18 23 -12 8 -32
23 -44 33 -12 11 -36 30 -54 44 -59 46 -64 52 -24 29 35 -20 312 -208 340
-231 19 -15 243 -176 291 -209 62 -42 242 -174 554 -407 235 -175 250 -184
110 -62 -110 95 -127 113 -65 67 690 -507 695 -511 695 -503 0 3 -17 17 -37
31 -91 61 41 -10 167 -90 123 -79 285 -175 294 -175 6 1 -16 26 -49 56 -33 31
-50 50 -38 43 12 -7 26 -10 30 -6 10 10 -38 102 -75 143 -61 70 -126 147 -146
172 -11 15 -26 33 -34 41 -7 7 -21 30 -32 51 -15 29 -68 73 -234 194 -208 151
-606 452 -616 466 -7 9 -268 215 -405 319 -60 46 -117 90 -125 98 -17 16 98
-48 405 -224 250 -143 298 -170 413 -229 87 -44 172 -69 158 -46 -21 35 -344
284 -716 551 -382 276 -405 296 -120 106 91 -61 201 -133 245 -160 165 -104
355 -234 488 -335 76 -58 148 -112 160 -120 25 -18 -34 78 -92 150 -38 48
-228 239 -327 330 -33 30 -105 96 -160 146 -151 139 -120 116 -489 364 -27 19
-52 37 -55 40 -3 4 -10 9 -16 11 -21 7 -363 254 -364 262 0 17 347 -215 740
-495 54 -39 54 -39 -21 34 -42 40 -82 82 -90 92 -13 18 -12 19 16 12 30 -7
140 -61 245 -119 50 -27 274 -159 798 -469 100 -59 185 -108 188 -108 3 0 18
-8 32 -19 42 -29 242 -131 258 -131 26 0 15 22 -35 69 -56 54 -55 53 -235 200
-145 118 -727 609 -736 620 -3 4 -40 35 -82 70 -43 35 -78 65 -78 67 0 12 149
-93 343 -240 122 -93 299 -225 392 -293 94 -68 175 -127 180 -131 26 -21 195
-132 195 -128 0 2 -54 47 -121 101 -66 54 -126 103 -132 109 -7 6 -39 34 -72
61 -91 76 -215 199 -215 213 0 18 21 15 103 -17 105 -40 127 -45 127 -26 0 16
-65 85 -160 169 -54 48 -53 48 40 -16 145 -99 599 -401 650 -432 25 -15 54
-32 64 -39 104 -64 137 -83 199 -113 39 -19 77 -34 84 -34 26 0 12 36 -37 100
-155 200 -158 225 -20 156 65 -33 230 -131 353 -210 103 -66 60 -30 -83 71
-315 220 -530 379 -530 390 0 3 284 -187 545 -365 87 -60 90 -53 3 8 -29 21
-154 107 -278 191 -353 240 -470 329 -529 406 -105 135 -76 171 98 122 73 -21
282 -102 391 -152 30 -14 100 -45 155 -70 55 -25 150 -68 210 -97 505 -239
915 -415 915 -393 0 16 -119 112 -385 312 -104 78 -197 148 -205 154 -8 7 -49
37 -90 67 -41 30 -79 58 -85 63 -35 27 -321 237 -365 267 -19 13 -41 30 -49
38 -8 7 -26 21 -40 30 -28 18 -578 428 -598 446 -7 6 -18 16 -25 21 -7 6 -29
23 -48 39 -78 64 45 -2 265 -142 39 -25 205 -144 370 -266 370 -273 665 -492
685 -509 8 -7 31 -23 50 -36 43 -30 27 -13 -69 70 -227 195 -381 356 -411 430
-17 40 -9 53 50 85 49 27 52 30 47 61 -9 56 -92 155 -250 301 -26 23 -47 45
-47 47 0 6 324 -231 405 -296 102 -82 380 -259 407 -259 26 0 -17 50 -117 135
-38 33 -72 62 -75 65 -17 18 -309 245 -437 339 -162 120 -205 159 -75 68 42
-30 177 -124 299 -210 558 -391 686 -457 328 -169 -66 53 -122 99 -125 102 -3
3 -34 29 -70 57 -63 49 -121 106 -90 88 43 -26 301 -202 340 -233 72 -57 76
-59 47 -24 -15 19 -27 38 -27 42 0 32 -201 195 -417 340 -85 57 -101 75 -57
64 25 -6 26 -6 13 18 -8 14 -40 54 -71 88 -52 56 -68 80 -53 80 11 0 65 -27
123 -62 34 -21 62 -36 62 -34 0 2 -57 46 -127 99 -140 104 -226 177 -219 184
2 3 26 -5 51 -16 55 -24 55 -24 55 -10 0 14 -10 23 -102 92 -43 31 -78 59 -78
61 0 2 56 -34 124 -79 234 -157 480 -305 509 -305 32 0 -60 96 -198 208 -130
105 -131 113 -3 30 70 -46 182 -119 250 -162 152 -98 508 -345 508 -352 0 -4
-8 -3 -17 1 -44 17 -135 43 -127 36 18 -16 114 -51 138 -51 20 0 24 4 19 18
-20 54 -249 241 -605 496 -76 54 -138 100 -138 103 0 3 11 -2 25 -11 133 -87
272 -162 282 -152 8 8 -80 95 -168 167 -24 20 -80 66 -124 103 -44 37 -105 88
-136 114 -31 26 -62 55 -68 65 -11 17 -10 17 11 6 83 -44 293 -179 626 -401
105 -70 192 -124 192 -119 0 6 -6 14 -14 18 -11 6 -86 71 -170 148 -6 6 -32
28 -56 50 -25 22 -88 79 -140 126 -52 47 -124 112 -160 144 -36 32 -85 78
-110 101 -25 23 -61 57 -80 74 -240 217 -754 731 -695 695 114 -69 595 -421
666 -487 20 -18 54 -59 77 -90 57 -78 195 -190 472 -384 47 -32 94 -66 106
-74 92 -65 266 -179 254 -167 -15 15 -155 136 -221 191 -104 86 -307 253 -413
339 -67 54 -130 106 -141 115 -11 10 -56 46 -100 82 -294 237 -521 437 -559
492 -23 32 -20 39 12 32 71 -17 241 -131 632 -424 307 -230 319 -237 229 -150
-131 129 -155 172 -113 211 29 27 30 44 5 84 -26 43 -159 174 -235 233 -16 12
-26 22 -22 22 4 0 50 -33 104 -72 115 -87 101 -76 291 -227 31 -25 50 -37 42
-28 -7 10 -35 33 -61 52 -27 20 -47 42 -46 52 0 10 -27 38 -69 70 -111 85
-374 259 -330 219 75 -68 -510 330 -945 644 -358 257 -978 713 -995 731 -5 6
73 -44 175 -113 242 -162 444 -288 605 -378 288 -161 860 -540 1619 -1073 16
-12 26 -16 22 -9 -8 13 -397 291 -561 401 -137 92 -171 123 -50 45 166 -106
374 -248 575 -392 115 -83 136 -97 105 -69 -94 86 -262 215 -595 457 -146 106
-279 205 -295 219 -17 14 -47 39 -68 55 -20 16 -37 33 -37 38 0 8 199 -125
345 -230 74 -53 123 -88 190 -134 33 -23 65 -46 70 -50 34 -28 166 -117 161
-109 -3 5 -37 31 -74 57 -67 48 -108 78 -407 298 -188 138 -193 142 -352 269
-106 84 -139 117 -118 117 13 0 87 -42 165 -95 167 -113 276 -189 315 -219
l40 -31 -35 40 c-58 66 -256 231 -620 518 -162 128 -388 315 -437 363 -39 37
-54 64 -36 64 21 0 158 -72 218 -114 121 -86 759 -511 790 -527 136 -68 324
-180 535 -318 267 -174 340 -221 340 -218 0 2 -30 28 -67 58 -37 30 -79 64
-93 76 -130 111 -225 178 -475 335 -161 100 -309 200 -333 225 -24 24 -141
121 -260 217 -119 96 -228 186 -242 201 l-25 27 64 -32 c35 -17 91 -53 125
-79 64 -49 318 -235 389 -285 46 -32 46 -31 -33 58 -114 130 -117 133 -359
267 -130 73 -294 173 -366 224 -285 201 -345 242 -737 504 -224 149 -410 276
-413 281 -11 18 10 10 60 -21 27 -17 58 -35 70 -39 54 -20 190 -90 289 -147
60 -35 110 -63 112 -63 2 0 63 -37 136 -83 208 -130 210 -128 13 13 -71 52
-189 138 -261 192 -178 133 -201 161 -75 92 67 -37 102 -59 646 -419 176 -116
448 -296 605 -400 157 -103 291 -192 298 -198 6 -5 12 -7 12 -4 0 3 -44 36
-97 74 -234 161 -326 236 -443 357 -41 43 -117 110 -167 148 -158 120 -120 99
182 -102 99 -66 189 -125 200 -131 44 -23 -51 44 -308 218 -239 161 -306 208
-272 191 61 -31 388 -238 658 -415 166 -109 216 -136 157 -83 -32 28 -282 197
-437 296 -157 99 -550 354 -568 369 -19 14 -18 15 10 3 62 -26 125 -64 290
-177 174 -120 212 -141 245 -141 41 0 15 37 -118 171 -117 117 -133 139 -103
139 35 0 108 -38 273 -142 276 -173 514 -336 575 -391 93 -84 127 -109 358
-259 173 -112 268 -168 255 -151 -26 33 -146 146 -245 228 -33 28 -62 53 -65
56 -3 3 -124 104 -270 225 -317 263 -352 294 -452 392 -71 69 -102 120 -63
106 8 -4 15 -3 15 0 0 3 -27 19 -60 36 -32 16 -119 69 -192 116 -212 138 -478
316 -478 320 0 8 82 -37 360 -196 350 -200 470 -264 496 -265 12 0 99 -51 195
-113 96 -62 237 -154 314 -204 80 -52 154 -93 172 -95 96 -13 15 62 -657 607
-255 207 -239 193 -219 183 8 -4 100 -65 205 -134 274 -183 423 -254 542 -258
58 -2 88 -8 137 -26 28 -11 -379 270 -567 390 -238 152 -237 152 61 -12 278
-154 461 -236 461 -207 0 26 -113 124 -400 349 -91 71 -167 132 -170 135 -3 3
-18 16 -35 29 -56 43 -135 123 -130 131 7 11 82 -20 225 -93 247 -127 452
-242 508 -285 63 -48 339 -231 360 -239 9 -4 -5 13 -32 38 -27 24 -59 53 -70
64 -172 163 -272 239 -492 371 -194 116 -452 265 -634 366 -91 51 -237 136
-295 173 -253 161 -715 478 -715 491 0 2 60 -36 133 -84 125 -84 349 -225 482
-304 278 -166 927 -539 985 -567 39 -18 10 1 -210 135 -205 126 -278 176 -165
114 33 -18 66 -38 73 -43 7 -5 15 -8 18 -5 3 3 -26 25 -65 49 -162 103 -466
292 -761 475 -145 90 -350 224 -350 229 0 7 129 -57 185 -92 11 -7 29 -17 40
-22 11 -6 50 -30 87 -53 155 -99 272 -169 258 -155 -8 9 -112 82 -230 164
-269 186 -362 254 -357 260 2 2 80 -42 173 -98 93 -55 178 -106 189 -112 68
-41 234 -150 315 -207 132 -94 500 -326 500 -316 0 9 -184 136 -579 400 -377
253 -454 307 -446 314 2 2 54 -24 117 -58 120 -66 256 -157 373 -249 98 -77
242 -178 301 -211 27 -15 173 -97 324 -182 330 -186 491 -271 545 -288 22 -7
96 -39 165 -73 69 -33 127 -61 130 -62 3 0 15 -6 26 -13 12 -6 24 -8 28 -5 3
3 6 1 6 -6 0 -7 4 -10 9 -7 5 3 12 -1 15 -10 3 -8 10 -13 15 -10 5 3 40 -8 78
-25 96 -43 68 -22 -62 46 -102 54 -198 112 -630 384 -276 173 -581 373 -680
446 -81 59 -95 73 -90 92 4 18 -7 32 -60 74 -36 28 -65 52 -65 54 0 2 96 -56
213 -129 116 -73 232 -144 257 -157 25 -13 47 -27 50 -30 3 -3 77 -45 165 -94
143 -79 517 -296 650 -377 28 -17 78 -45 112 -63 34 -18 59 -35 55 -39 -3 -4
2 -4 12 0 14 5 17 4 12 -5 -4 -6 -4 -10 1 -9 16 4 53 -14 48 -23 -3 -5 0 -7 7
-4 14 6 385 -192 556 -297 34 -21 62 -36 62 -34 0 3 -38 30 -85 61 -119 79
-114 81 34 13 162 -74 119 -33 -139 133 -119 77 -131 88 -55 52 136 -65 350
-185 588 -330 48 -29 87 -50 87 -48 0 3 -51 39 -112 79 -104 68 -173 108 -363
211 -446 242 -662 373 -772 470 l-38 34 31 -8 c37 -10 180 -71 309 -131 139
-65 320 -139 354 -146 19 -4 31 -2 31 4 0 19 -128 115 -380 286 -544 368 -785
526 -1210 796 -822 523 -1040 666 -1040 681 0 6 15 2 33 -9 17 -11 88 -52 157
-91 69 -40 132 -76 140 -81 8 -5 78 -47 155 -93 192 -115 307 -186 455 -280
173 -110 469 -252 487 -233 9 8 -17 31 -105 95 -78 57 -95 76 -34 38 41 -27
54 -34 338 -192 253 -142 434 -238 434 -232 0 6 -32 26 -250 159 -80 49 -152
93 -160 98 -8 5 -40 24 -70 42 -128 74 -316 192 -330 205 -27 27 132 -57 280
-147 8 -5 60 -35 115 -68 55 -32 186 -110 290 -172 105 -62 258 -153 340 -202
190 -113 182 -108 232 -140 23 -16 46 -28 51 -28 5 0 16 -8 23 -17 12 -15 12
-16 -3 -10 -49 18 1 -15 175 -118 54 -32 104 -66 110 -76 7 -11 16 -19 21 -19
4 0 3 7 -4 15 -18 22 -5 18 40 -10 22 -14 43 -25 47 -25 5 0 -34 27 -85 61
-51 33 -98 57 -104 53 -7 -4 -8 -3 -4 4 8 13 -23 31 -43 24 -8 -2 -11 0 -7 6
3 5 -2 9 -12 8 -9 0 -16 4 -15 9 1 6 -7 12 -18 12 -23 2 -92 43 -85 50 3 3 21
-5 40 -17 20 -12 36 -19 36 -16 0 4 -293 201 -455 305 -22 14 -41 29 -43 34
-2 4 -8 7 -12 7 -5 0 -76 44 -157 98 -81 54 -208 138 -281 186 -72 48 -136 95
-142 104 -5 10 -10 13 -10 7 0 -6 -4 -5 -8 1 -4 7 -59 40 -122 75 -63 34 -176
104 -250 154 -181 123 -894 512 -921 503 -17 -6 37 -44 326 -235 143 -95 265
-177 272 -183 7 -5 15 -10 18 -10 8 0 299 -201 320 -222 11 -11 -16 2 -60 28
-44 26 -192 113 -330 194 -323 189 -749 442 -754 446 -3 2 41 84 126 237 2 4
2 7 0 7 -3 0 -37 -51 -78 -112 -40 -62 -74 -114 -75 -116 -1 -2 -26 12 -55 31
-64 40 -99 59 -99 53 0 -2 32 -23 70 -46 73 -44 75 -47 61 -68 -6 -10 -45 9
-162 79 -85 51 -185 113 -224 137 -93 60 -274 154 -288 149 -6 -2 31 -29 81
-61 51 -32 92 -60 92 -63 0 -6 -264 133 -362 191 -43 25 -78 44 -78 41 0 -2
43 -32 95 -66 52 -33 95 -63 95 -66 0 -3 -10 1 -22 9 -13 8 -50 30 -83 48 -33
18 -64 36 -70 40 -5 4 -28 18 -50 30 -140 78 -423 245 -440 260 -33 29 -205
105 -205 90 0 -12 56 -55 205 -155 277 -188 305 -207 305 -211 0 -5 -179 89
-230 121 -19 12 -43 24 -52 28 -10 3 -44 22 -75 42 -41 25 -49 28 -28 10 37
-32 201 -144 315 -215 90 -57 535 -321 560 -333 8 -4 29 -16 45 -26 17 -10
122 -72 235 -139 113 -66 206 -127 208 -136 2 -9 -1 -16 -6 -16 -9 0 -372 203
-412 230 -8 6 -22 13 -30 17 -8 4 -51 28 -95 53 -44 26 -101 59 -127 74 -92
50 -144 80 -238 134 -52 30 -115 66 -140 80 -25 14 -118 67 -207 119 -89 51
-165 93 -169 93 -4 0 -15 6 -23 13 -22 19 -131 80 -131 73 0 -2 156 -98 348
-212 381 -227 466 -279 440 -271 -19 7 -340 185 -381 212 -15 9 -27 15 -27 12
0 -7 371 -235 500 -307 142 -79 420 -244 417 -247 -2 -1 -39 16 -82 38 -90 45
-156 69 -168 62 -5 -3 -4 -10 2 -16 6 -6 11 -15 11 -19 0 -16 -30 -7 -106 32
-43 22 -79 38 -81 36 -2 -1 9 -9 25 -17 48 -25 237 -141 247 -152 13 -13 -66
30 -340 187 -286 164 -305 167 -80 11 55 -38 133 -92 172 -120 40 -27 70 -51
68 -53 -6 -6 -157 73 -257 134 -276 169 -391 242 -543 344 -107 72 -321 197
-535 312 -30 17 -60 33 -65 37 -6 3 1 -4 15 -16 14 -13 29 -23 33 -23 4 0 20
-8 35 -19 15 -10 77 -49 137 -86 142 -88 325 -206 325 -211 0 -2 -8 -1 -17 3
-22 8 -364 183 -378 193 -22 17 -315 160 -322 158 -7 -2 -87 44 -275 157 -9 6
-49 29 -90 53 -40 24 -117 70 -171 102 -55 33 -102 60 -105 60 -4 0 25 -20 63
-44z m860 -506 c3 -6 -1 -7 -9 -4 -18 7 -21 14 -7 14 6 0 13 -4 16 -10z m2435
-715 c19 -13 96 -60 170 -105 167 -102 200 -124 195 -128 -2 -2 -21 8 -42 22
-20 14 -41 26 -45 26 -4 0 -29 13 -55 28 -27 16 -173 100 -325 187 -245 139
-276 159 -268 176 9 16 26 8 173 -83 89 -55 178 -111 197 -123z m-450 165 c8
-5 11 -10 5 -10 -5 0 -21 10 -35 21 -24 20 -5 13 30 -11z m-3230 -157 c0 -7
-39 17 -46 28 -3 6 5 3 20 -6 14 -10 26 -19 26 -22z m2745 17 c3 -5 1 -10 -4
-10 -6 0 -11 5 -11 10 0 6 2 10 4 10 3 0 8 -4 11 -10z m562 -86 c50 -30 225
-136 253 -155 14 -9 75 -47 135 -84 109 -68 167 -109 90 -65 -37 21 -233 131
-335 188 -25 14 -73 42 -107 63 -34 21 -84 50 -112 64 -36 18 -49 29 -45 40 5
13 13 12 48 -9 22 -13 55 -32 73 -42z m484 -671 c13 -16 12 -17 -3 -4 -10 7
-18 15 -18 17 0 8 8 3 21 -13z m-894 -150 c207 -132 523 -341 523 -347 0 -5
-164 94 -380 229 -19 12 -84 53 -145 90 -60 38 -127 79 -148 92 -21 13 -35 28
-32 33 3 6 8 10 10 10 2 0 79 -48 172 -107z m-4116 -440 c13 -16 12 -17 -3 -4
-17 13 -22 21 -14 21 2 0 10 -8 17 -17z m889 -109 c0 -2 -9 0 -20 6 -11 6 -20
13 -20 16 0 2 9 0 20 -6 11 -6 20 -13 20 -16z m4021 -1291 c13 -16 12 -17 -3
-4 -10 7 -18 15 -18 17 0 8 8 3 21 -13z m-870 -510 c13 -16 12 -17 -3 -4 -10
7 -18 15 -18 17 0 8 8 3 21 -13z m-5840 -690 c13 -16 12 -17 -3 -4 -10 7 -18
15 -18 17 0 8 8 3 21 -13z m-1060 -330 c13 -16 12 -17 -3 -4 -10 7 -18 15 -18
17 0 8 8 3 21 -13z m-1901 -849 c69 -46 143 -102 165 -124 36 -38 31 -36 -60
27 -186 129 -232 163 -246 180 -18 22 -18 22 141 -83z m10960 -741 c0 -7 -39
17 -46 28 -3 6 5 3 20 -6 14 -10 26 -19 26 -22z m-9825 -103 c10 -11 16 -20
13 -20 -3 0 -13 9 -23 20 -10 11 -16 20 -13 20 3 0 13 -9 23 -20z m9680 -338
c-3 -3 -11 0 -18 7 -9 10 -8 11 6 5 10 -3 15 -9 12 -12z m-8159 -733 c3 -6 -5
-3 -20 6 -14 10 -26 19 -26 22 0 7 39 -17 46 -28z m5595 -576 c13 -16 12 -17
-3 -4 -10 7 -18 15 -18 17 0 8 8 3 21 -13z m-6796 -473 c3 -6 -1 -7 -9 -4 -18
7 -21 14 -7 14 6 0 13 -4 16 -10z m4508 -972 c36 -24 141 -90 235 -148 94 -58
171 -107 172 -110 0 -3 -10 -6 -22 -7 -17 -2 -314 195 -437 289 -43 33 -13 19
52 -24z m2558 -175 c13 -16 12 -17 -3 -4 -10 7 -18 15 -18 17 0 8 8 3 21 -13z
m1400 -130 c13 -16 12 -17 -3 -4 -10 7 -18 15 -18 17 0 8 8 3 21 -13z m-3986
-1341 c-3 -3 -11 0 -18 7 -9 10 -8 11 6 5 10 -3 15 -9 12 -12z m131 -55 c16
-9 26 -16 23 -17 -10 0 -119 51 -119 56 0 5 55 -17 96 -39z m909 -114 c157
-97 201 -125 315 -198 52 -33 186 -119 298 -189 111 -71 200 -131 198 -133 -3
-3 -31 13 -63 34 -32 22 -150 97 -263 167 -382 238 -669 421 -697 444 -15 12
-1 6 32 -14 33 -21 114 -70 180 -111z m-807 67 c34 -16 64 -30 66 -30 2 0 42
-17 88 -39 219 -102 314 -144 326 -144 6 0 12 -3 12 -7 0 -4 6 -7 13 -7 11 0
56 -21 260 -117 31 -15 57 -29 57 -30 0 -2 -13 -3 -29 -2 -16 1 -26 5 -23 10
3 5 -2 6 -12 3 -11 -5 -15 -3 -10 5 5 7 0 9 -14 6 -12 -4 -20 -1 -19 4 1 6 -4
13 -12 16 -9 3 -11 0 -6 -8 5 -9 4 -11 -4 -6 -6 4 -8 12 -5 18 5 8 1 9 -10 5
-11 -5 -15 -3 -10 5 5 7 0 9 -14 6 -14 -4 -20 -2 -15 5 4 7 0 8 -11 4 -9 -4
-14 -3 -11 2 7 12 -31 24 -46 15 -7 -4 -9 -3 -6 3 8 13 -38 37 -54 28 -8 -6
-10 -4 -4 5 6 10 4 12 -9 7 -11 -5 -15 -3 -10 5 5 8 2 9 -10 5 -11 -5 -15 -3
-10 5 5 8 2 9 -10 5 -9 -4 -15 -3 -12 2 7 10 -49 33 -58 24 -3 -4 -6 -1 -6 6
0 8 -6 11 -17 7 -10 -4 -14 -4 -10 0 9 10 -43 35 -56 27 -6 -4 -7 -1 -2 7 6
10 3 12 -13 8 -12 -4 -20 -2 -17 2 6 10 -51 31 -62 22 -4 -4 -5 -3 -1 2 4 5
-47 34 -115 65 -119 55 -168 80 -156 81 3 0 33 -13 67 -30z m877 -50 c3 -6 -1
-7 -9 -4 -18 7 -21 14 -7 14 6 0 13 -4 16 -10z m-144 -17 c13 -16 12 -17 -3
-4 -10 7 -18 15 -18 17 0 8 8 3 21 -13z m-256 -61 c-3 -3 -11 0 -18 7 -9 10
-8 11 6 5 10 -3 15 -9 12 -12z m90 -42 c3 -6 -1 -7 -9 -4 -18 7 -21 14 -7 14
6 0 13 -4 16 -10z m-30 -130 c11 -4 50 -22 87 -39 37 -17 79 -33 93 -37 14 -3
28 -10 31 -15 3 -5 10 -7 15 -4 5 4 9 1 9 -5 0 -6 4 -9 9 -6 5 3 20 -3 32 -14
l24 -19 -25 6 c-14 3 -29 9 -35 13 -5 4 -89 43 -185 85 -96 43 -179 82 -185
87 -5 5 17 -2 50 -17 33 -15 69 -30 80 -35z m325 -114 c0 -3 -4 -8 -10 -11 -5
-3 -10 -1 -10 4 0 6 5 11 10 11 6 0 10 -2 10 -4z m485 -74 c-8 -8 -25 10 -19
20 4 6 9 5 15 -3 4 -7 6 -15 4 -17z m195 -109 c0 -1 -16 5 -35 14 -19 9 -32
20 -29 25 4 6 64 -29 64 -39z"/>
<path d="M6900 13066 c0 -3 9 -10 20 -16 11 -6 20 -8 20 -6 0 3 -9 10 -20 16
-11 6 -20 8 -20 6z"/>
<path d="M8380 12915 c0 -2 18 -14 40 -25 22 -11 40 -18 40 -15 0 2 -18 14
-40 25 -22 11 -40 18 -40 15z"/>
<path d="M5145 12850 c10 -11 20 -20 23 -20 3 0 -3 9 -13 20 -10 11 -20 20
-23 20 -3 0 3 -9 13 -20z"/>
<path d="M5180 12827 c0 -3 33 -31 73 -63 39 -32 66 -51 59 -43 -14 19 -132
112 -132 106z"/>
<path d="M5330 12706 c0 -2 8 -10 18 -17 15 -13 16 -12 3 4 -13 16 -21 21 -21
13z"/>
<path d="M7037 12689 c7 -7 15 -10 18 -7 3 3 -2 9 -12 12 -14 6 -15 5 -6 -5z"/>
<path d="M9200 12686 c0 -2 7 -7 16 -10 8 -3 12 -2 9 4 -6 10 -25 14 -25 6z"/>
<path d="M6240 12555 c0 -9 111 -85 255 -174 83 -51 174 -109 204 -128 29 -19
50 -30 47 -24 -4 5 -50 38 -104 71 -53 34 -166 106 -249 160 -84 55 -153 97
-153 95z"/>
<path d="M8357 12539 c7 -7 15 -10 18 -7 3 3 -2 9 -12 12 -14 6 -15 5 -6 -5z"/>
<path d="M4384 12501 c20 -22 26 -25 26 -13 0 4 -10 13 -22 21 -23 14 -23 14
-4 -8z"/>
<path d="M4150 12506 c0 -2 16 -13 36 -25 19 -12 32 -16 29 -11 -7 11 -65 43
-65 36z"/>
<path d="M8780 12506 c0 -3 9 -10 20 -16 11 -6 20 -8 20 -6 0 3 -9 10 -20 16
-11 6 -20 8 -20 6z"/>
<path d="M10375 12490 c-3 -5 -1 -10 4 -10 6 0 11 5 11 10 0 6 -2 10 -4 10 -3
0 -8 -4 -11 -10z"/>
<path d="M8835 12473 c10 -11 214 -129 345 -201 36 -19 71 -39 78 -45 7 -5 15
-8 17 -5 4 4 -87 57 -285 168 -36 20 -87 49 -115 65 -27 15 -45 23 -40 18z"/>
<path d="M4774 12451 c7 -11 46 -35 46 -28 0 3 -12 12 -26 22 -15 9 -23 12
-20 6z"/>
<path d="M10602 12244 c10 -10 20 -16 22 -13 3 3 -5 11 -17 18 -21 13 -21 12
-5 -5z"/>
<path d="M10640 12226 c0 -6 148 -96 158 -96 4 0 -9 10 -28 23 -53 35 -130 78
-130 73z"/>
<path d="M9290 12216 c0 -3 9 -10 20 -16 11 -6 20 -8 20 -6 0 3 -9 10 -20 16
-11 6 -20 8 -20 6z"/>
<path d="M10792 12188 c2 -7 72 -58 155 -113 83 -55 159 -106 169 -113 39 -26
-55 23 -161 85 -144 84 -145 84 -145 76 1 -5 40 -31 88 -59 48 -27 254 -149
457 -269 204 -120 384 -226 400 -235 144 -84 837 -480 839 -480 2 0 74 -40
160 -90 87 -49 160 -90 163 -90 3 0 18 -9 35 -21 16 -12 31 -19 34 -17 2 3
-103 68 -233 146 -131 77 -278 165 -328 196 -232 142 -1087 650 -1235 735 -30
17 -51 31 -47 31 13 0 112 -49 287 -144 91 -48 203 -109 250 -134 47 -25 109
-60 138 -78 32 -19 61 -30 73 -27 19 5 18 7 -8 25 -45 30 -351 212 -428 253
-92 49 -602 308 -638 323 -23 10 -28 10 -25 0z"/>
<path d="M6830 12176 c0 -2 8 -10 18 -17 15 -13 16 -12 3 4 -13 16 -21 21 -21
13z"/>
<path d="M5405 12155 c22 -18 86 -53 70 -38 -5 6 -28 20 -50 32 -22 13 -31 15
-20 6z"/>
<path d="M7610 12069 c96 -62 179 -108 233 -129 26 -10 47 -17 47 -15 0 4
-318 178 -335 183 -5 2 19 -15 55 -39z"/>
<path d="M11190 11820 c8 -5 20 -10 25 -10 6 0 3 5 -5 10 -8 5 -19 10 -25 10
-5 0 -3 -5 5 -10z"/>
<path d="M11290 11776 c0 -2 30 -21 68 -42 93 -52 115 -64 215 -123 49 -28 90
-51 91 -51 15 0 611 -362 674 -408 18 -14 35 -22 38 -20 7 8 -278 190 -570
365 -209 125 -516 291 -516 279z"/>
<path d="M11855 11668 c19 -14 232 -138 325 -190 25 -14 194 -111 375 -215
182 -105 348 -201 370 -213 22 -12 46 -27 53 -32 6 -6 12 -8 12 -4 0 25 -837
526 -879 526 -6 0 -11 3 -11 8 0 4 -13 13 -29 20 -16 7 -66 33 -111 57 -45 24
-92 47 -104 51 -21 6 -21 6 -1 -8z"/>
<path d="M6510 11635 c0 -6 134 -105 175 -129 l30 -18 -28 24 c-37 33 -177
130 -177 123z"/>
<path d="M4390 11616 c0 -3 9 -10 20 -16 11 -6 20 -8 20 -6 0 3 -9 10 -20 16
-11 6 -20 8 -20 6z"/>
<path d="M4440 11586 c0 -2 8 -10 18 -17 15 -13 16 -12 3 4 -13 16 -21 21 -21
13z"/>
<path d="M9060 11526 c0 -2 8 -10 18 -17 15 -13 16 -12 3 4 -13 16 -21 21 -21
13z"/>
<path d="M11765 11440 c7 -11 65 -43 65 -36 0 2 -16 13 -36 25 -19 12 -32 16
-29 11z"/>
<path d="M11865 11381 c31 -19 254 -149 315 -183 19 -11 47 -29 62 -39 14 -11
31 -19 37 -19 6 0 11 -4 11 -10 0 -5 4 -10 10 -10 5 0 147 -85 314 -190 168
-104 308 -190 311 -190 9 0 -285 219 -415 310 -58 40 -116 74 -130 75 -29 3
-163 71 -454 232 -78 43 -118 59 -61 24z"/>
<path d="M5710 11336 c0 -2 7 -7 16 -10 8 -3 12 -2 9 4 -6 10 -25 14 -25 6z"/>
<path d="M5757 11309 c7 -7 15 -10 18 -7 3 3 -2 9 -12 12 -14 6 -15 5 -6 -5z"/>
<path d="M4395 10985 c22 -20 544 -386 735 -515 8 -6 38 -26 65 -46 93 -67
195 -135 195 -130 0 4 -236 178 -355 261 -31 22 -75 54 -98 71 -82 60 -493
341 -532 363 l-40 23 30 -27z"/>
<path d="M6230 10987 c0 -3 35 -30 78 -62 42 -32 69 -49 60 -39 -18 20 -138
108 -138 101z"/>
<path d="M12900 10888 c3 -3 41 -30 85 -59 44 -29 96 -65 115 -79 19 -15 49
-35 65 -44 30 -17 30 -17 5 1 -13 10 -36 29 -50 42 -33 31 -239 161 -220 139z"/>
<path d="M13030 10836 c0 -2 7 -7 16 -10 8 -3 12 -2 9 4 -6 10 -25 14 -25 6z"/>
<path d="M1550 10826 c0 -2 8 -10 18 -17 15 -13 16 -12 3 4 -13 16 -21 21 -21
13z"/>
<path d="M5239 10667 c8 -9 44 -38 80 -63 36 -24 54 -34 39 -20 -15 13 -24 27
-20 32 4 4 2 4 -5 0 -6 -3 -15 0 -20 7 -4 7 -15 16 -23 20 -8 4 -26 15 -40 24
-24 17 -24 17 -11 0z"/>
<path d="M13250 10655 c0 -6 82 -60 105 -69 13 -4 16 -4 10 2 -13 13 -115 73
-115 67z"/>
<path d="M12725 10586 c49 -36 571 -299 670 -338 l49 -19 -19 21 c-25 28 -192
123 -204 116 -5 -4 -13 -1 -17 5 -5 8 -3 9 6 4 8 -5 11 -4 6 3 -4 6 -12 9 -19
6 -7 -2 -116 47 -242 109 -259 129 -304 147 -230 93z"/>
<path d="M5215 10343 c21 -22 169 -116 155 -98 -8 10 -31 27 -50 39 -73 46
-115 69 -105 59z"/>
<path d="M4885 10030 c10 -11 20 -20 23 -20 3 0 -3 9 -13 20 -10 11 -20 20
-23 20 -3 0 3 -9 13 -20z"/>
<path d="M4380 9863 c24 -21 66 -55 94 -76 28 -21 62 -47 76 -58 14 -11 45
-31 70 -44 25 -12 112 -64 194 -114 141 -86 208 -118 141 -68 -133 100 -588
397 -608 397 -6 0 9 -17 33 -37z"/>
<path d="M2520 9416 c0 -2 8 -10 18 -17 15 -13 16 -12 3 4 -13 16 -21 21 -21
13z"/>
<path d="M10375 9180 c4 -6 24 -22 46 -36 22 -13 47 -31 57 -39 9 -8 73 -55
142 -105 69 -51 127 -94 129 -96 3 -3 -12 3 -33 11 -21 9 -40 14 -43 12 -2 -3
13 -20 35 -38 43 -36 163 -101 172 -93 3 3 -12 19 -32 36 -21 16 -36 34 -33
38 3 5 -32 35 -77 68 -141 100 -370 254 -363 242z"/>
<path d="M11290 9028 c67 -55 186 -137 292 -200 99 -60 182 -108 185 -108 4 0
14 -6 22 -13 21 -18 119 -73 106 -60 -14 14 -705 473 -712 473 -3 0 45 -42
107 -92z"/>
<path d="M1390 8708 c47 -49 225 -200 253 -215 60 -30 33 -3 -91 92 -70 55
-129 102 -132 105 -3 3 -16 14 -30 25 l-25 19 25 -26z"/>
<path d="M11420 8577 c0 -3 12 -12 26 -22 15 -9 23 -12 20 -6 -7 11 -46 35
-46 28z"/>
<path d="M80 7726 c0 -2 8 -10 18 -17 15 -13 16 -12 3 4 -13 16 -21 21 -21 13z"/>
<path d="M120 7696 c0 -2 8 -10 18 -17 15 -13 16 -12 3 4 -13 16 -21 21 -21
13z"/>
<path d="M12027 7359 c7 -7 15 -10 18 -7 3 3 -2 9 -12 12 -14 6 -15 5 -6 -5z"/>
<path d="M1420 7306 c0 -2 8 -10 18 -17 15 -13 16 -12 3 4 -13 16 -21 21 -21
13z"/>
<path d="M12180 7136 c0 -2 8 -10 18 -17 15 -13 16 -12 3 4 -13 16 -21 21 -21
13z"/>
<path d="M1710 5866 c0 -2 8 -10 18 -17 15 -13 16 -12 3 4 -13 16 -21 21 -21
13z"/>
<path d="M11915 5725 c28 -20 57 -41 65 -48 51 -40 100 -73 225 -150 77 -46
158 -94 178 -106 21 -12 50 -29 65 -38 15 -9 23 -12 17 -6 -10 11 -188 128
-448 295 -138 89 -194 118 -102 53z"/>
<path d="M12330 5186 c0 -2 8 -10 18 -17 15 -13 16 -12 3 4 -13 16 -21 21 -21
13z"/>
<path d="M9585 4380 c10 -11 20 -20 23 -20 3 0 -3 9 -13 20 -10 11 -20 20 -23
20 -3 0 3 -9 13 -20z"/>
<path d="M8760 3956 c0 -3 59 -45 97 -69 29 -18 10 1 -36 36 -44 34 -61 43
-61 33z"/>
<path d="M8895 3860 c10 -11 20 -20 23 -20 3 0 -3 9 -13 20 -10 11 -20 20 -23
20 -3 0 3 -9 13 -20z"/>
<path d="M9200 3648 c8 -9 94 -71 190 -139 96 -67 190 -133 208 -147 17 -13
32 -20 32 -14 0 5 -6 12 -14 15 -8 3 -57 37 -108 75 -123 90 -327 229 -308
210z"/>
<path d="M1940 3625 c0 -2 18 -14 40 -25 22 -11 40 -18 40 -15 0 2 -18 14 -40
25 -22 11 -40 18 -40 15z"/>
<path d="M9644 3331 c7 -11 46 -35 46 -28 0 3 -12 12 -26 22 -15 9 -23 12 -20
6z"/>
<path d="M9380 2816 c0 -2 8 -10 18 -17 15 -13 16 -12 3 4 -13 16 -21 21 -21
13z"/>
<path d="M3150 2750 c8 -5 20 -10 25 -10 6 0 3 5 -5 10 -8 5 -19 10 -25 10 -5
0 -3 -5 5 -10z"/>
<path d="M3210 2727 c0 -3 15 -10 32 -16 18 -6 28 -7 23 -2 -12 10 -55 25 -55
18z"/>
<path d="M3300 2685 c14 -8 30 -14 35 -14 6 0 -1 6 -15 14 -14 8 -29 14 -35
14 -5 0 1 -6 15 -14z"/>
<path d="M9480 2626 c0 -2 8 -10 18 -17 15 -13 16 -12 3 4 -13 16 -21 21 -21
13z"/>
<path d="M9642 2502 c91 -69 133 -97 125 -85 -8 12 -172 133 -182 133 -3 0 22
-22 57 -48z"/>
<path d="M6300 2406 c0 -2 8 -10 18 -17 15 -13 16 -12 3 4 -13 16 -21 21 -21
13z"/>
<path d="M7685 1453 c21 -20 208 -143 212 -139 3 2 -40 33 -94 68 -111 73
-133 86 -118 71z"/>
<path d="M7910 1303 c1 -11 385 -274 410 -280 23 -6 27 12 6 20 -8 3 -100 62
-203 129 -228 150 -213 141 -213 131z"/>
<path d="M7946 1012 c-6 -9 131 -95 152 -95 6 0 12 -4 12 -8 0 -13 38 -30 44
-20 8 13 -91 74 -105 65 -7 -4 -9 -3 -6 4 4 5 -13 22 -37 36 -49 29 -53 30
-60 18z m84 -49 c0 -7 -39 17 -46 28 -3 6 5 3 20 -6 14 -10 26 -19 26 -22z
m65 -33 c3 -6 -1 -7 -9 -4 -18 7 -21 14 -7 14 6 0 13 -4 16 -10z"/>
<path d="M8270 946 c0 -2 8 -10 18 -17 15 -13 16 -12 3 4 -13 16 -21 21 -21
13z"/>
<path d="M7980 836 c0 -6 182 -98 186 -94 1 2 -32 22 -74 43 -83 43 -112 56
-112 51z"/>
<path d="M8107 709 c-9 -6 -15 -14 -12 -20 3 -5 -1 -6 -9 -3 -9 3 -16 2 -16
-4 0 -6 15 -14 33 -17 17 -4 49 -16 69 -26 46 -23 49 -23 42 -1 -3 9 4 5 16
-10 12 -16 27 -28 33 -28 8 0 7 3 -2 9 -8 5 -9 11 -3 15 6 3 14 -3 17 -14 5
-17 10 -19 21 -9 10 8 14 8 14 1 0 -7 7 -9 17 -5 11 4 14 3 9 -5 -4 -7 -3 -12
3 -12 24 0 18 19 -9 29 -17 5 -30 7 -30 3 0 -4 -4 -2 -8 5 -4 7 -28 21 -52 32
-25 11 -45 24 -45 28 0 4 -6 7 -13 5 -7 -2 -20 2 -28 9 -7 6 -21 8 -30 5 -14
-5 -15 -4 -4 9 14 17 12 18 -13 4z m33 -29 c-8 -5 -19 -10 -25 -10 -5 0 -3 5
5 10 8 5 20 10 25 10 6 0 3 -5 -5 -10z m57 -22 c2 -16 0 -19 -6 -9 -5 7 -13
11 -19 7 -6 -3 -14 -1 -18 5 -4 7 -3 9 2 6 6 -3 16 -2 24 4 8 5 15 9 15 9 1 0
2 -10 2 -22z"/>
<path d="M8347 649 c7 -7 15 -10 18 -7 3 3 -2 9 -12 12 -14 6 -15 5 -6 -5z"/>
<path d="M8364 578 c-4 -6 -3 -8 4 -4 5 3 12 1 14 -6 3 -8 6 -9 11 -1 4 6 0
13 -8 17 -8 3 -17 0 -21 -6z"/>
<path d="M8673 565 c0 -7 7 -11 15 -7 10 3 13 1 8 -6 -5 -8 -1 -10 10 -5 12 4
15 3 10 -5 -5 -8 -1 -10 10 -5 13 5 15 3 9 -7 -5 -8 -4 -11 2 -7 6 4 14 0 17
-9 3 -8 10 -12 16 -9 16 10 3 23 -49 50 -34 17 -48 20 -48 10z"/>
<path d="M8410 559 c0 -5 5 -7 10 -4 6 3 10 2 10 -2 0 -5 10 -9 23 -10 21 -2
21 -1 -3 12 -30 17 -40 18 -40 4z"/>
<path d="M8686 505 c10 -8 23 -15 28 -15 6 0 1 7 -10 15 -10 8 -23 15 -28 15
-6 0 -1 -7 10 -15z"/>
<path d="M8806 492 c-3 -5 1 -9 9 -9 8 0 12 4 9 9 -3 4 -7 8 -9 8 -2 0 -6 -4
-9 -8z"/>
<path d="M8744 476 c11 -9 24 -16 30 -16 12 0 7 5 -24 19 -24 11 -24 11 -6 -3z"/>
<path d="M8797 449 c7 -7 15 -10 18 -7 3 3 -2 9 -12 12 -14 6 -15 5 -6 -5z"/>
<path d="M8896 437 c3 -10 9 -15 12 -12 3 3 0 11 -7 18 -10 9 -11 8 -5 -6z"/>
<path d="M9209 273 c-7 -10 -9 -15 -4 -10 4 4 18 1 30 -7 18 -12 22 -12 22 -1
0 8 -3 14 -6 13 -20 -2 -31 3 -26 12 10 17 -2 11 -16 -7z"/>
<path d="M9350 187 c0 -3 12 -12 26 -22 15 -9 23 -12 20 -6 -7 11 -46 35 -46
28z"/>
<path d="M9410 146 c0 -3 9 -10 20 -16 11 -6 20 -8 20 -6 0 3 -9 10 -20 16
-11 6 -20 8 -20 6z"/>
<path d="M9490 97 c0 -3 12 -12 26 -22 15 -9 23 -12 20 -6 -7 11 -46 35 -46
28z"/>
</g>
</svg>
